#N canvas 27 11 1440 817 12;
#X obj -130 2363 dac~;
#X floatatom -150 1481 5 0 0 0 - - - 0;
#X floatatom -364 866 5 0 0 0 - - - 0;
#X obj -39 1097 osc~;
#X obj -27 1137 *~;
#X floatatom -6 1027 5 0 0 0 - - - 0;
#X obj -132 2071 +~;
#X obj -134 2106 osc~;
#X text -295 1480 Carrier Frequency;
#X text -221 1007 Modulator Frequency;
#X text -47 1002 Modulation Depth;
#X text -195 1098 Modulating Oscillator;
#X obj -133 2162 *~;
#X obj 492 1483 line~;
#X obj 467 1233 bng 30 250 50 0 empty empty empty 0 -10 0 12 #fcfcfc #000000 #000000;
#X obj 594 1476 loadbang;
#X obj 600 1502 tgl 19 0 empty empty empty 0 -10 0 12 #fcfcfc #000000 #000000 0 1;
#X obj 600 1526 metro 20;
#X obj 601 1577 snapshot~;
#X floatatom 601 1601 5 0 0 0 - - - 0;
#X obj 508 1315 bng 30 250 50 0 empty empty empty 0 -10 0 12 #fcfcfc #000000 #000000;
#X obj 610 1384 bng 30 250 50 0 empty empty empty 0 -10 0 12 #fcfcfc #000000 #000000;
#X msg 447 1290 1 5;
#X obj 507 1288 delay 5;
#X msg 491 1369 0.7 1000;
#X msg -198 92 devices;
#X msg -129 74 open 5;
#X msg -57 74 close;
#X obj -193 296 sel 13 10;
#X obj -190 342 cyclone/zl group 100;
#X obj -191 373 list tosymbol;
#X floatatom -195 517 5 0 0 0 - - - 0;
#X obj -189 405 cyclone/fromsymbol;
#X floatatom -146 515 5 0 0 0 - - - 0;
#X floatatom -93 518 5 0 0 0 - - - 0;
#X floatatom -29 686 5 0 0 0 - - - 0;
#X floatatom 201 673 5 0 0 0 - - - 0;
#X floatatom 452 686 5 0 0 0 - - - 0;
#X floatatom 758 664 5 0 0 0 - - - 0;
#X floatatom 967 665 5 0 0 0 - - - 0;
#X floatatom 1202 663 5 0 0 0 - - - 0;
#X floatatom 1453 664 5 0 0 0 - - - 0;
#X floatatom 1753 663 5 0 0 0 - - - 0;
#X floatatom 1969 661 5 0 0 0 - - - 0;
#X floatatom 2202 662 5 0 0 0 - - - 0;
#X floatatom 2454 664 5 0 0 0 - - - 0;
#X floatatom 2736 659 5 0 0 0 - - - 0;
#X obj -193 567 -;
#X floatatom -246 529 5 0 0 0 - - - 0;
#X obj -144 570 -;
#X obj -90 570 -;
#X floatatom -186 874 5 0 0 0 - - - 0;
#X floatatom -144 623 5 0 0 0 - - - 0;
#X floatatom -96 622 5 0 0 0 - - - 0;
#X obj -30 730 sel 0;
#X obj 21 731 sel 1;
#X obj 23 766 bng 19 250 50 0 empty empty empty 0 -10 0 12 #fcfcfc #000000 #000000;
#X obj -32 770 bng 19 250 50 0 empty empty empty 0 -10 0 12 #fcfcfc #000000 #000000;
#X msg -31 811 2, f 2;
#X msg -75 812 1;
#X msg -122 814 2;
#X obj -122 762 loadbang;
#X obj -27 866 cyclone/gate 2;
#X obj 275 1016 bng 19 250 50 0 empty empty empty 0 -10 0 12 #fcfcfc #000000 #000000;
#X obj 203 730 sel 0;
#X obj 254 731 sel 1;
#X obj 256 766 bng 19 250 50 0 empty empty empty 0 -10 0 12 #fcfcfc #000000 #000000;
#X obj 201 770 bng 19 250 50 0 empty empty empty 0 -10 0 12 #fcfcfc #000000 #000000;
#X msg 202 811 2, f 2;
#X msg 158 812 1;
#X msg 111 814 2;
#X obj 111 762 loadbang;
#X obj 206 866 cyclone/gate 2;
#X obj 301 970 bng 19 250 50 0 empty empty empty 0 -10 0 12 #c7c6ff #ffffff #ffffff;
#X obj 455 731 sel 0;
#X obj 506 732 sel 1;
#X obj 509 764 bng 19 250 50 0 empty empty empty 0 -10 0 12 #fcfcfc #000000 #000000;
#X obj 454 768 bng 19 250 50 0 empty empty empty 0 -10 0 12 #fcfcfc #000000 #000000;
#X msg 455 809 2, f 2;
#X msg 411 810 1;
#X msg 364 812 2;
#X obj 364 760 loadbang;
#X obj 459 863 cyclone/gate 2;
#X obj 341 1019 bng 19 250 50 0 empty empty empty 0 -10 0 12 #fcfcfc #000000 #000000;
#X obj 756 718 sel 0;
#X obj 807 719 sel 1;
#X obj 810 751 bng 19 250 50 0 empty empty empty 0 -10 0 12 #fcfcfc #000000 #000000;
#X obj 755 755 bng 19 250 50 0 empty empty empty 0 -10 0 12 #fcfcfc #000000 #000000;
#X msg 756 796 2, f 2;
#X msg 712 797 1;
#X msg 665 799 2;
#X obj 665 747 loadbang;
#X obj 760 851 cyclone/gate 2;
#X obj 385 968 bng 19 250 50 0 empty empty empty 0 -10 0 12 #c7c6ff #ffffff #ffffff;
#X obj 965 709 sel 0;
#X obj 1016 710 sel 1;
#X obj 1019 742 bng 19 250 50 0 empty empty empty 0 -10 0 12 #fcfcfc #000000 #000000;
#X obj 964 746 bng 19 250 50 0 empty empty empty 0 -10 0 12 #fcfcfc #000000 #000000;
#X msg 965 787 2, f 2;
#X msg 921 788 1;
#X msg 874 790 2;
#X obj 874 738 loadbang;
#X obj 969 842 cyclone/gate 2;
#X obj 422 1018 bng 19 250 50 0 empty empty empty 0 -10 0 12 #fcfcfc #000000 #000000;
#X obj 1198 709 sel 0;
#X obj 1249 710 sel 1;
#X obj 1252 742 bng 19 250 50 0 empty empty empty 0 -10 0 12 #fcfcfc #000000 #000000;
#X obj 1197 746 bng 19 250 50 0 empty empty empty 0 -10 0 12 #fcfcfc #000000 #000000;
#X msg 1198 787 2, f 2;
#X msg 1154 788 1;
#X msg 1107 790 2;
#X obj 1107 738 loadbang;
#X obj 1202 842 cyclone/gate 2;
#X obj 478 1018 bng 19 250 50 0 empty empty empty 0 -10 0 12 #fcfcfc #000000 #000000;
#X obj 1451 707 sel 0;
#X obj 1502 708 sel 1;
#X obj 1505 740 bng 19 250 50 0 empty empty empty 0 -10 0 12 #fcfcfc #000000 #000000;
#X obj 1450 744 bng 19 250 50 0 empty empty empty 0 -10 0 12 #fcfcfc #000000 #000000;
#X msg 1451 785 2, f 2;
#X msg 1407 786 1;
#X msg 1360 788 2;
#X obj 1360 736 loadbang;
#X obj 1455 839 cyclone/gate 2;
#X obj 519 965 bng 19 250 50 0 empty empty empty 0 -10 0 12 #c7c6ff #ffffff #ffffff;
#X obj 1752 694 sel 0;
#X obj 1803 695 sel 1;
#X obj 1806 727 bng 19 250 50 0 empty empty empty 0 -10 0 12 #fcfcfc #000000 #000000;
#X obj 1751 731 bng 19 250 50 0 empty empty empty 0 -10 0 12 #fcfcfc #000000 #000000;
#X msg 1752 772 2, f 2;
#X msg 1708 773 1;
#X msg 1661 775 2;
#X obj 1661 723 loadbang;
#X obj 1756 827 cyclone/gate 2;
#X obj 565 1015 bng 19 250 50 0 empty empty empty 0 -10 0 12 #fcfcfc #000000 #000000;
#X obj 1967 701 sel 0;
#X obj 2018 702 sel 1;
#X obj 2021 734 bng 19 250 50 0 empty empty empty 0 -10 0 12 #fcfcfc #000000 #000000;
#X obj 1966 738 bng 19 250 50 0 empty empty empty 0 -10 0 12 #fcfcfc #000000 #000000;
#X msg 1967 779 2, f 2;
#X msg 1923 780 1;
#X msg 1876 782 2;
#X obj 1876 730 loadbang;
#X obj 1971 834 cyclone/gate 2;
#X obj 618 963 bng 19 250 50 0 empty empty empty 0 -10 0 12 #c7c6ff #ffffff #ffffff;
#X obj 2200 701 sel 0;
#X obj 2251 702 sel 1;
#X obj 2254 734 bng 19 250 50 0 empty empty empty 0 -10 0 12 #fcfcfc #000000 #000000;
#X obj 2199 738 bng 19 250 50 0 empty empty empty 0 -10 0 12 #fcfcfc #000000 #000000;
#X msg 2200 779 2, f 2;
#X msg 2156 780 1;
#X msg 2109 782 2;
#X obj 2109 730 loadbang;
#X obj 2204 834 cyclone/gate 2;
#X obj 664 1017 bng 19 250 50 0 empty empty empty 0 -10 0 12 #fcfcfc #000000 #000000;
#X obj 2453 699 sel 0;
#X obj 2504 700 sel 1;
#X obj 2507 732 bng 19 250 50 0 empty empty empty 0 -10 0 12 #fcfcfc #000000 #000000;
#X obj 2452 736 bng 19 250 50 0 empty empty empty 0 -10 0 12 #fcfcfc #000000 #000000;
#X msg 2453 777 2, f 2;
#X msg 2409 778 1;
#X msg 2362 780 2;
#X obj 2362 728 loadbang;
#X obj 2457 831 cyclone/gate 2;
#X obj 718 966 bng 19 250 50 0 empty empty empty 0 -10 0 12 #c7c6ff #ffffff #ffffff;
#X obj 2736 696 sel 0;
#X obj 2787 697 sel 1;
#X obj 2790 729 bng 19 250 50 0 empty empty empty 0 -10 0 12 #fcfcfc #000000 #000000;
#X obj 2735 733 bng 19 250 50 0 empty empty empty 0 -10 0 12 #fcfcfc #000000 #000000;
#X msg 2736 774 2, f 2;
#X msg 2692 775 1;
#X msg 2645 777 2;
#X obj 2646 722 loadbang;
#X obj 2740 829 cyclone/gate 2;
#X obj 775 1016 bng 19 250 50 0 empty empty empty 0 -10 0 12 #fcfcfc #000000 #000000;
#X floatatom 637 1303 5 0 0 0 - - - 0;
#X obj 609 1353 delay;
#X floatatom 590 1227 5 0 0 0 - - - 0;
#X obj 638 1269 *;
#X msg -741 1215 261;
#X msg -702 1215 277;
#X msg -655 1213 294;
#X msg -602 1211 311;
#X msg -563 1215 329;
#X msg -524 1215 350;
#X msg -477 1213 370;
#X msg -424 1211 392;
#X msg -371 1212 415;
#X msg -332 1210 440;
#X msg -286 1210 466;
#X msg -232 1207 494;
#X floatatom 202 1688 5 0 0 0 - - - 0;
#X obj 12 1825 osc~;
#X floatatom 276 1688 5 0 0 0 - - - 0;
#X obj 86 1825 osc~;
#X floatatom 333 1687 5 0 0 0 - - - 0;
#X obj 143 1824 osc~;
#X floatatom 396 1686 5 0 0 0 - - - 0;
#X obj 211 1815 osc~;
#X floatatom 466 1686 5 0 0 0 - - - 0;
#X obj 282 1817 osc~;
#X floatatom 528 1688 5 0 0 0 - - - 0;
#X obj 343 1817 osc~;
#X obj 14 1769 +~;
#X obj 92 1768 +~;
#X obj 142 1779 +~;
#X obj 214 1773 +~;
#X obj 281 1773 +~;
#X obj 345 1774 +~;
#X obj 10 1988 *~;
#X obj 84 1987 *~;
#X obj 140 1987 *~;
#X obj 212 1988 *~;
#X obj 286 1987 *~;
#X obj 342 1987 *~;
#X obj 438 1848 tgl 60 0 empty overtones empty 0 -10 0 12 #fcfcfc #000000 #000000 0 1;
#X obj 347 1943 *~ 0.1;
#X obj 284 1944 *~ 0.2;
#X obj 213 1942 *~ 0.3;
#X obj 141 1938 *~ 0.4;
#X obj 84 1938 *~ 0.5;
#X obj 10 1939 *~ 0.6;
#X obj 202 1651 * 2;
#X msg 605 1445 0 550;
#X obj 276 1651 * 3;
#X obj 335 1648 * 4;
#X obj 396 1648 * 5;
#X obj 467 1650 * 6;
#X obj 528 1649 * 7;
#X floatatom 647 -377 5 0 0 0 - - - 0;
#X obj 646 -333 sel 0;
#X obj 697 -332 sel 1;
#X obj 699 -297 bng 19 250 50 0 empty empty empty 0 -10 0 12 #fcfcfc #000000 #000000;
#X obj 644 -293 bng 19 250 50 0 empty empty empty 0 -10 0 12 #fcfcfc #000000 #000000;
#X msg 645 -252 2, f 2;
#X msg 601 -251 1;
#X msg 554 -249 2;
#X obj 554 -301 loadbang;
#X obj 649 -197 cyclone/gate 2;
#X floatatom 885 -396 5 0 0 0 - - - 0;
#X obj 884 -352 sel 0;
#X obj 935 -351 sel 1;
#X obj 937 -316 bng 19 250 50 0 empty empty empty 0 -10 0 12 #fcfcfc #000000 #000000;
#X obj 882 -312 bng 19 250 50 0 empty empty empty 0 -10 0 12 #fcfcfc #000000 #000000;
#X msg 883 -271 2, f 2;
#X msg 839 -270 1;
#X msg 792 -268 2;
#X obj 792 -320 loadbang;
#X obj 887 -216 cyclone/gate 2;
#X obj 654 -164 bng 19 250 50 0 empty empty empty 0 -10 0 12 #fcfcfc #000000 #000000;
#X obj 895 -170 bng 19 250 50 0 empty empty empty 0 -10 0 12 #fcfcfc #000000 #000000;
#X obj 659 -1 +;
#X floatatom 183 -84 5 0 0 0 - - - 0;
#X msg 579 -70 4;
#X obj 582 -133 loadbang, f 9;
#X msg 656 -81 -1;
#X msg 698 -75 1;
#X obj 466 -181 bng 19 250 50 0 empty empty empty 0 -10 0 12 #fcfcfc #000000 #000000;
#X obj 470 -217 sel -1 \, 9;
#X obj 532 -179 bng 19 250 50 0 empty empty empty 0 -10 0 12 #fcfcfc #000000 #000000;
#X obj 185 -158 metro 10;
#X obj 184 -232 tgl 19 0 empty empty empty 0 -10 0 12 #fcfcfc #000000 #000000 0 1;
#X obj 185 -275 loadbang;
#X msg -246 489 5;
#X floatatom 360 302 8 0 0 0 - - - 0;
#X obj -189 446 unpack f f f f f f f f f f f f f f f f f, f 129;
#X obj 115 79 sel 0 1 2 3 4 5 6 7 8, f 74;
#X obj 109 144 bng 19 250 50 0 empty empty empty 0 -10 0 12 #fcfcfc #000000 #000000;
#X obj 174 142 bng 19 250 50 0 empty empty empty 0 -10 0 12 #fcfcfc #000000 #000000;
#X msg 106 191 0.063;
#X msg 177 192 0.125;
#X obj 233 145 bng 19 250 50 0 empty empty empty 0 -10 0 12 #fcfcfc #000000 #000000;
#X obj 287 144 bng 19 250 50 0 empty empty empty 0 -10 0 12 #fcfcfc #000000 #000000;
#X obj 347 145 bng 19 250 50 0 empty empty empty 0 -10 0 12 #fcfcfc #000000 #000000;
#X obj 412 143 bng 19 250 50 0 empty empty empty 0 -10 0 12 #fcfcfc #000000 #000000;
#X obj 471 146 bng 19 250 50 0 empty empty empty 0 -10 0 12 #fcfcfc #000000 #000000;
#X obj 525 145 bng 19 250 50 0 empty empty empty 0 -10 0 12 #fcfcfc #000000 #000000;
#X obj 582 146 bng 19 250 50 0 empty empty empty 0 -10 0 12 #fcfcfc #000000 #000000;
#X msg 230 192 0.25;
#X msg 290 194 0.5;
#X msg 345 192 1;
#X msg 415 193 2;
#X msg 468 193 4;
#X msg 528 195 8;
#X msg 579 193 16;
#X obj -138 1326 r pitchScl;
#X obj 272 356 s pitchScl;
#X floatatom -139 1377 5 0 0 0 - - - 0;
#X floatatom -262 1372 5 0 0 0 - - - 0;
#X obj -153 1437 *;
#X obj -98 981 *;
#X obj -838 513 loadbang;
#X floatatom -838 666 5 0 0 0 - - - 0;
#X obj -80 914 r mdMultiplier;
#X floatatom -81 947 5 0 0 0 - - - 0;
#X obj -837 688 s mdMultiplier;
#X obj -832 263 loadbang;
#X floatatom -833 397 5 0 0 0 - - - 0;
#X msg -832 286 1;
#X obj -833 425 s mfMultiplier;
#X obj -812 613 hsl 162 40 1 5 0 0 empty empty Modulation\ Depth\ Multiplier -2 -10 0 20 #e3c6ff #000000 #000000 0 1;
#X obj -812 339 hsl 162 40 1 5 0 0 empty empty Modulation\ Frequency\ Multiplier -2 -10 0 20 #c6feff #000000 #000000 0 1;
#X obj -308 987 *;
#X floatatom -291 953 5 0 0 0 - - - 0;
#X obj -290 920 r mfMultiplier;
#X floatatom -166 1024 5 0 0 0 - - - 0;
#X obj -174 231 comport 5 115200;
#X obj -1238 461 tgl 60 0 overtones empty Overtones\ Enable 0 -10 0 20 #e3c6ff #000000 #000000 0 1;
#X obj -837 452 loadbang;
#X msg -837 488 0;
#X obj -48 2244 r vlmn;
#N canvas 0 50 450 250 (subpatch) 0;
#X array arrVlmn 100 float 1;
#A 0 0 0 0 0 0 0 0 0 0 0 0 0 0 0 0 0 0 0 0 0 0 0 0 0 0 0 0 0 0 0 0 0 0 0 0 0 0 0 0 0 0 0 0 0 0 0 0 0 0 0 0 0 0 0 0 0 0 0 0 0 0 0 0 0 0 0 0 0 0 0 0 0 0 0 0 0 0 0 0 0 0 0 0 0 0 0 0 0 0 0 0 0 0 0 0 0 0 0 0 0;
#X coords 0 1 99 -1 300 300 1 0 0;
#X restore -1559 428 graph;
#X obj -327 2324 metro 10;
#X obj -323 2182 tgl 60 0 empty empty empty 0 -10 0 12 #fcfcfc #000000 #000000 0 1;
#X obj -1562 240 vsl 40 160 0 1 0 0 vlmn rNull Volumen 0 -15 0 20 #c6ffc7 #000000 #000000 0 1;
#X obj -329 2366 tabwrite~ arrVlmn;
#X obj -130 2311 clip~ -0.4 0.4;
#X obj -130 2273 *~ 0.5;
#X obj -1235 556 hsl 200 40 1 51000 0 0 null valSustain Sustain\ Value -2 -10 0 20 #ffc7c6 #000000 #000000 0 1;
#X obj 680 1336 s valSustain;
#X obj -832 106 loadbang;
#X floatatom -833 234 5 0 0 0 - - sustainMultiplier 0;
#X msg -832 151 5;
#X obj 663 1205 r sustainMultiplier;
#X obj -798 187 hsl 162 40 1 50 0 0 empty empty Sustain\ multiplier -2 -10 0 20 #ffc7c6 #000000 #000000 0 1;
#X obj 57 1200 s valDepth;
#X obj -1234 687 hsl 300 40 0 10170 0 0 null valDepth Depth\ Value -2 -10 0 20 #e3c6ff #000000 #000000 0 1;
#X obj -203 1069 s valMF;
#X obj -1235 619 hsl 300 40 0 5100 0 0 null valMF Modulation\ Frequency\ Value -2 -10 0 20 #c6feff #000000 #000000 0 1;
#X msg -838 547 1;
#X obj 669 1129 s b0;
#X obj 746 1127 s b1;
#X obj 803 1130 s b2;
#X obj 847 1131 s b3;
#X obj 902 1126 s b4;
#X obj 949 1128 s b5;
#X obj 1004 1131 s b6;
#X obj 1048 1132 s b7;
#X obj 1121 1128 s b8;
#X obj 1166 1130 s b9;
#X obj 1223 1133 s b10;
#X obj 1267 1134 s b11;
#X obj -1493 333 bng 50 250 50 0 null b0 empty 0 -10 0 12 #ffffff #000000 #000000;
#X obj -1442 283 bng 50 250 50 0 null b1 empty 0 -10 0 12 #606060 #ffffff #ffffff;
#X obj -1391 333 bng 50 250 50 0 null b2 empty 0 -10 0 12 #ffffff #000000 #000000;
#X obj -1340 283 bng 50 250 50 0 null b3 empty 0 -10 0 12 #606060 #ffffff #ffffff;
#X obj -1289 333 bng 50 250 50 0 null b4 empty 0 -10 0 12 #ffffff #000000 #000000;
#X obj -1238 333 bng 50 250 50 0 null b5 empty 0 -10 0 12 #ffffff #000000 #000000;
#X obj -1187 283 bng 50 250 50 0 null b6 empty 0 -10 0 12 #606060 #ffffff #ffffff;
#X obj -1136 333 bng 50 250 50 0 null b7 empty 0 -10 0 12 #ffffff #000000 #000000;
#X obj -1085 283 bng 50 250 50 0 null b8 empty 0 -10 0 12 #606060 #ffffff #ffffff;
#X obj -1034 333 bng 50 250 50 0 null b9 empty 0 -10 0 12 #ffffff #000000 #000000;
#X obj -983 283 bng 50 250 50 0 null b10 empty 0 -10 0 12 #606060 #ffffff #ffffff;
#X obj -932 333 bng 50 250 50 0 null b11 empty 0 -10 0 12 #ffffff #000000 #000000;
#X obj -199 1540 s f;
#X floatatom -1221 185 5 0 0 2 C\ Scale cs null 24;
#X floatatom -1444 185 5 0 0 2 Frequency\ Note f null 24;
#X obj 202 -21 s cs;
#X obj -1560 5 vu 19 200 rv empty -1 -10 0 12 #404040 #000000 1 0;
#X obj -174 2413 s rv;
#X obj -176 2352 env~;
#X obj -176 2376 - 100;
#X msg 145 -126 8;
#X msg 211 -124 0;
#X obj -115 191 +;
#X obj -294 439 loadbang;
#X obj -324 2106 loadbang;
#X connect 1 0 6 0;
#X connect 1 0 221 0;
#X connect 1 0 227 0;
#X connect 1 0 226 0;
#X connect 1 0 225 0;
#X connect 1 0 224 0;
#X connect 1 0 223 0;
#X connect 1 0 353 0;
#X connect 2 0 301 0;
#X connect 3 0 4 0;
#X connect 4 0 6 1;
#X connect 4 0 202 1;
#X connect 4 0 203 1;
#X connect 4 0 204 1;
#X connect 4 0 205 1;
#X connect 4 0 206 1;
#X connect 4 0 207 1;
#X connect 5 0 4 1;
#X connect 5 0 324 0;
#X connect 6 0 7 0;
#X connect 7 0 12 0;
#X connect 12 0 316 0;
#X connect 13 0 18 0;
#X connect 13 0 12 1;
#X connect 13 0 213 1;
#X connect 13 0 212 1;
#X connect 13 0 211 1;
#X connect 13 0 210 1;
#X connect 13 0 209 1;
#X connect 13 0 208 1;
#X connect 14 0 22 0;
#X connect 14 0 23 0;
#X connect 15 0 16 0;
#X connect 16 0 17 0;
#X connect 17 0 18 0;
#X connect 18 0 19 0;
#X connect 20 0 24 0;
#X connect 20 0 175 0;
#X connect 21 0 222 0;
#X connect 22 0 13 0;
#X connect 23 0 20 0;
#X connect 24 0 13 0;
#X connect 25 0 305 0;
#X connect 26 0 305 0;
#X connect 27 0 305 0;
#X connect 28 0 29 0;
#X connect 28 2 29 0;
#X connect 29 0 30 0;
#X connect 30 0 32 0;
#X connect 31 0 47 0;
#X connect 32 0 264 0;
#X connect 33 0 49 0;
#X connect 34 0 50 0;
#X connect 35 0 54 0;
#X connect 35 0 55 0;
#X connect 36 0 64 0;
#X connect 36 0 65 0;
#X connect 37 0 74 0;
#X connect 37 0 75 0;
#X connect 38 0 84 0;
#X connect 38 0 85 0;
#X connect 39 0 94 0;
#X connect 39 0 95 0;
#X connect 40 0 104 0;
#X connect 40 0 105 0;
#X connect 41 0 114 0;
#X connect 41 0 115 0;
#X connect 42 0 124 0;
#X connect 42 0 125 0;
#X connect 43 0 134 0;
#X connect 43 0 135 0;
#X connect 44 0 144 0;
#X connect 44 0 145 0;
#X connect 45 0 154 0;
#X connect 45 0 155 0;
#X connect 46 0 164 0;
#X connect 46 0 165 0;
#X connect 47 0 51 0;
#X connect 48 0 47 1;
#X connect 48 0 50 1;
#X connect 48 0 49 1;
#X connect 49 0 52 0;
#X connect 50 0 53 0;
#X connect 51 0 176 0;
#X connect 52 0 2 0;
#X connect 53 0 289 0;
#X connect 54 0 57 0;
#X connect 55 0 56 0;
#X connect 56 0 62 1;
#X connect 57 0 58 0;
#X connect 58 0 62 0;
#X connect 59 0 62 0;
#X connect 60 0 62 0;
#X connect 61 0 60 0;
#X connect 62 1 63 0;
#X connect 63 0 59 0;
#X connect 63 0 14 0;
#X connect 63 0 178 0;
#X connect 63 0 329 0;
#X connect 64 0 67 0;
#X connect 65 0 66 0;
#X connect 66 0 72 1;
#X connect 67 0 68 0;
#X connect 68 0 72 0;
#X connect 69 0 72 0;
#X connect 70 0 72 0;
#X connect 71 0 70 0;
#X connect 72 1 73 0;
#X connect 73 0 69 0;
#X connect 73 0 14 0;
#X connect 73 0 179 0;
#X connect 73 0 330 0;
#X connect 74 0 77 0;
#X connect 75 0 76 0;
#X connect 76 0 82 1;
#X connect 77 0 78 0;
#X connect 78 0 82 0;
#X connect 79 0 82 0;
#X connect 80 0 82 0;
#X connect 81 0 80 0;
#X connect 82 1 83 0;
#X connect 83 0 79 0;
#X connect 83 0 14 0;
#X connect 83 0 180 0;
#X connect 83 0 331 0;
#X connect 84 0 87 0;
#X connect 85 0 86 0;
#X connect 86 0 92 1;
#X connect 87 0 88 0;
#X connect 88 0 92 0;
#X connect 89 0 92 0;
#X connect 90 0 92 0;
#X connect 91 0 90 0;
#X connect 92 1 93 0;
#X connect 93 0 89 0;
#X connect 93 0 14 0;
#X connect 93 0 181 0;
#X connect 93 0 332 0;
#X connect 94 0 97 0;
#X connect 95 0 96 0;
#X connect 96 0 102 1;
#X connect 97 0 98 0;
#X connect 98 0 102 0;
#X connect 99 0 102 0;
#X connect 100 0 102 0;
#X connect 101 0 100 0;
#X connect 102 1 103 0;
#X connect 103 0 99 0;
#X connect 103 0 14 0;
#X connect 103 0 182 0;
#X connect 103 0 333 0;
#X connect 104 0 107 0;
#X connect 105 0 106 0;
#X connect 106 0 112 1;
#X connect 107 0 108 0;
#X connect 108 0 112 0;
#X connect 109 0 112 0;
#X connect 110 0 112 0;
#X connect 111 0 110 0;
#X connect 112 1 113 0;
#X connect 113 0 109 0;
#X connect 113 0 14 0;
#X connect 113 0 183 0;
#X connect 113 0 334 0;
#X connect 114 0 117 0;
#X connect 115 0 116 0;
#X connect 116 0 122 1;
#X connect 117 0 118 0;
#X connect 118 0 122 0;
#X connect 119 0 122 0;
#X connect 120 0 122 0;
#X connect 121 0 120 0;
#X connect 122 1 123 0;
#X connect 123 0 119 0;
#X connect 123 0 14 0;
#X connect 123 0 184 0;
#X connect 123 0 335 0;
#X connect 124 0 127 0;
#X connect 125 0 126 0;
#X connect 126 0 132 1;
#X connect 127 0 128 0;
#X connect 128 0 132 0;
#X connect 129 0 132 0;
#X connect 130 0 132 0;
#X connect 131 0 130 0;
#X connect 132 1 133 0;
#X connect 133 0 129 0;
#X connect 133 0 14 0;
#X connect 133 0 185 0;
#X connect 133 0 336 0;
#X connect 134 0 137 0;
#X connect 135 0 136 0;
#X connect 136 0 142 1;
#X connect 137 0 138 0;
#X connect 138 0 142 0;
#X connect 139 0 142 0;
#X connect 140 0 142 0;
#X connect 141 0 140 0;
#X connect 142 1 143 0;
#X connect 143 0 139 0;
#X connect 143 0 14 0;
#X connect 143 0 186 0;
#X connect 143 0 337 0;
#X connect 144 0 147 0;
#X connect 145 0 146 0;
#X connect 146 0 152 1;
#X connect 147 0 148 0;
#X connect 148 0 152 0;
#X connect 149 0 152 0;
#X connect 150 0 152 0;
#X connect 151 0 150 0;
#X connect 152 1 153 0;
#X connect 153 0 149 0;
#X connect 153 0 14 0;
#X connect 153 0 187 0;
#X connect 153 0 338 0;
#X connect 154 0 157 0;
#X connect 155 0 156 0;
#X connect 156 0 162 1;
#X connect 157 0 158 0;
#X connect 158 0 162 0;
#X connect 159 0 162 0;
#X connect 160 0 162 0;
#X connect 161 0 160 0;
#X connect 162 1 163 0;
#X connect 163 0 159 0;
#X connect 163 0 14 0;
#X connect 163 0 188 0;
#X connect 163 0 339 0;
#X connect 164 0 167 0;
#X connect 165 0 166 0;
#X connect 166 0 172 1;
#X connect 167 0 168 0;
#X connect 168 0 172 0;
#X connect 169 0 172 0;
#X connect 170 0 172 0;
#X connect 171 0 170 0;
#X connect 172 1 173 0;
#X connect 173 0 169 0;
#X connect 173 0 14 0;
#X connect 173 0 189 0;
#X connect 173 0 340 0;
#X connect 174 0 175 1;
#X connect 174 0 318 0;
#X connect 175 0 21 0;
#X connect 176 0 177 0;
#X connect 177 0 174 0;
#X connect 178 0 287 0;
#X connect 179 0 287 0;
#X connect 180 0 287 0;
#X connect 181 0 287 0;
#X connect 182 0 287 0;
#X connect 183 0 287 0;
#X connect 184 0 287 0;
#X connect 185 0 287 0;
#X connect 186 0 287 0;
#X connect 187 0 287 0;
#X connect 188 0 287 0;
#X connect 189 0 287 0;
#X connect 190 0 202 0;
#X connect 191 0 220 0;
#X connect 192 0 203 0;
#X connect 193 0 219 0;
#X connect 194 0 204 0;
#X connect 195 0 218 0;
#X connect 196 0 205 0;
#X connect 197 0 217 0;
#X connect 198 0 206 0;
#X connect 199 0 216 0;
#X connect 200 0 207 0;
#X connect 201 0 215 0;
#X connect 202 0 191 0;
#X connect 203 0 193 0;
#X connect 204 0 195 0;
#X connect 205 0 197 0;
#X connect 206 0 199 0;
#X connect 207 0 201 0;
#X connect 208 0 316 0;
#X connect 209 0 316 0;
#X connect 210 0 316 0;
#X connect 211 0 316 0;
#X connect 212 0 316 0;
#X connect 213 0 316 0;
#X connect 214 0 215 1;
#X connect 214 0 216 1;
#X connect 214 0 217 1;
#X connect 214 0 218 1;
#X connect 214 0 219 1;
#X connect 214 0 220 1;
#X connect 215 0 213 0;
#X connect 216 0 212 0;
#X connect 217 0 211 0;
#X connect 218 0 210 0;
#X connect 219 0 209 0;
#X connect 220 0 208 0;
#X connect 221 0 190 0;
#X connect 222 0 13 0;
#X connect 223 0 192 0;
#X connect 224 0 194 0;
#X connect 225 0 196 0;
#X connect 226 0 198 0;
#X connect 227 0 200 0;
#X connect 228 0 229 0;
#X connect 228 0 230 0;
#X connect 229 0 232 0;
#X connect 230 0 231 0;
#X connect 231 0 237 1;
#X connect 232 0 233 0;
#X connect 233 0 237 0;
#X connect 234 0 237 0;
#X connect 235 0 237 0;
#X connect 236 0 235 0;
#X connect 237 1 248 0;
#X connect 238 0 239 0;
#X connect 238 0 240 0;
#X connect 239 0 242 0;
#X connect 240 0 241 0;
#X connect 241 0 247 1;
#X connect 242 0 243 0;
#X connect 243 0 247 0;
#X connect 244 0 247 0;
#X connect 245 0 247 0;
#X connect 246 0 245 0;
#X connect 247 1 249 0;
#X connect 248 0 254 0;
#X connect 248 0 234 0;
#X connect 249 0 255 0;
#X connect 249 0 244 0;
#X connect 250 0 251 0;
#X connect 251 0 250 1;
#X connect 251 0 257 0;
#X connect 251 0 265 0;
#X connect 251 0 356 0;
#X connect 251 0 363 0;
#X connect 252 0 251 0;
#X connect 253 0 252 0;
#X connect 254 0 250 0;
#X connect 255 0 250 0;
#X connect 256 0 361 0;
#X connect 257 0 256 0;
#X connect 257 2 258 0;
#X connect 258 0 362 0;
#X connect 259 0 251 0;
#X connect 260 0 259 0;
#X connect 261 0 260 0;
#X connect 262 0 48 0;
#X connect 263 0 285 0;
#X connect 264 0 31 0;
#X connect 264 1 33 0;
#X connect 264 2 34 0;
#X connect 264 3 35 0;
#X connect 264 4 36 0;
#X connect 264 5 37 0;
#X connect 264 6 38 0;
#X connect 264 7 39 0;
#X connect 264 8 40 0;
#X connect 264 9 41 0;
#X connect 264 10 42 0;
#X connect 264 11 43 0;
#X connect 264 12 44 0;
#X connect 264 13 45 0;
#X connect 264 14 46 0;
#X connect 264 15 228 0;
#X connect 264 16 238 0;
#X connect 265 0 266 0;
#X connect 265 1 267 0;
#X connect 265 2 270 0;
#X connect 265 3 271 0;
#X connect 265 4 272 0;
#X connect 265 5 273 0;
#X connect 265 6 274 0;
#X connect 265 7 275 0;
#X connect 265 8 276 0;
#X connect 266 0 268 0;
#X connect 267 0 269 0;
#X connect 268 0 263 0;
#X connect 269 0 263 0;
#X connect 270 0 277 0;
#X connect 271 0 278 0;
#X connect 272 0 279 0;
#X connect 273 0 280 0;
#X connect 274 0 281 0;
#X connect 275 0 282 0;
#X connect 276 0 283 0;
#X connect 277 0 263 0;
#X connect 278 0 263 0;
#X connect 279 0 263 0;
#X connect 280 0 263 0;
#X connect 281 0 263 0;
#X connect 282 0 263 0;
#X connect 283 0 263 0;
#X connect 284 0 286 0;
#X connect 286 0 288 1;
#X connect 287 0 288 0;
#X connect 288 0 1 0;
#X connect 289 0 5 0;
#X connect 290 0 328 0;
#X connect 291 0 294 0;
#X connect 292 0 293 0;
#X connect 293 0 289 1;
#X connect 295 0 297 0;
#X connect 296 0 298 0;
#X connect 297 0 296 0;
#X connect 297 0 300 0;
#X connect 299 0 291 0;
#X connect 300 0 296 0;
#X connect 301 0 304 0;
#X connect 302 0 301 1;
#X connect 303 0 302 0;
#X connect 304 0 3 0;
#X connect 304 0 326 0;
#X connect 305 0 28 0;
#X connect 307 0 308 0;
#X connect 308 0 306 0;
#X connect 309 0 316 1;
#X connect 311 0 314 0;
#X connect 312 0 311 0;
#X connect 315 0 0 0;
#X connect 315 0 0 1;
#X connect 315 0 314 0;
#X connect 315 0 359 0;
#X connect 316 0 315 0;
#X connect 319 0 321 0;
#X connect 321 0 320 0;
#X connect 321 0 323 0;
#X connect 322 0 177 1;
#X connect 323 0 320 0;
#X connect 328 0 291 0;
#X connect 328 0 299 0;
#X connect 359 0 360 0;
#X connect 360 0 358 0;
#X connect 361 0 251 0;
#X connect 362 0 251 0;
#X connect 363 0 305 0;
#X connect 364 0 262 0;
#X connect 365 0 312 0;
